<?xml version="1.0" encoding="utf-8"?>
<!-- Generator: Adobe Illustrator 24.2.3, SVG Export Plug-In . SVG Version: 6.00 Build 0)  -->
<svg version="1.1" id="Capa_1" xmlns="http://www.w3.org/2000/svg" xmlns:xlink="http://www.w3.org/1999/xlink" x="0px" y="0px"
	 viewBox="0 0 512 512" style="enable-background:new 0 0 512 512;" xml:space="preserve">
<style type="text/css">
	.st0{fill:#E13434;}
</style>
<g>
	<g>
		<g>
			<path class="st0" d="M117.3,192h21.3c5.9,0,10.7-4.8,10.7-10.7v-44.5l91.6,91.6c4.2,4.2,9.6,6.3,15.1,6.3s10.9-2.1,15.1-6.3
				L402.2,97.3c4.2-4.2,4.2-10.9,0-15.1l-15.1-15.1c-4.2-4.2-10.9-4.2-15.1,0l-116,116l-76.5-76.5H224c5.9,0,10.7-4.8,10.7-10.7
				V74.7c0-5.9-4.8-10.7-10.7-10.7h-96c-11.8,0-21.3,9.6-21.3,21.3v96C106.7,187.2,111.4,192,117.3,192z"/>
			<path class="st0" d="M503.3,342.4c-66-69.4-153.9-107.7-247.3-107.7c-93.4,0-181.3,38.2-247.3,107.7c-11.6,12.2-11.6,32.1,0,44.3
				l49.2,51.7c11.6,12.1,32.1,12.1,43.7,0c16.4-17.3,35.1-31.6,55.5-42.3c10.2-5.3,16.8-16.3,16.7-26.8l7.4-56.1
				c54.4-17.4,95.8-17.4,149.7,0l7.3,54.7c0,11.8,6.3,22.6,16.5,28.3c20.4,10.8,39.1,25.1,55.6,42.4c5.8,6.1,13.5,9.4,21.8,9.4
				c8.3,0,16-3.3,21.8-9.4l49.3-51.9C514.9,374.5,514.9,354.6,503.3,342.4z"/>
		</g>
	</g>
</g>
</svg>
