<?xml version="1.0" encoding="utf-8"?>
<!-- Generator: Adobe Illustrator 24.2.3, SVG Export Plug-In . SVG Version: 6.00 Build 0)  -->
<svg version="1.1" id="Capa_1" xmlns="http://www.w3.org/2000/svg" xmlns:xlink="http://www.w3.org/1999/xlink" x="0px" y="0px"
	 viewBox="0 0 473.8 473.8" style="enable-background:new 0 0 473.8 473.8;" xml:space="preserve">
<style type="text/css">
	.st0{fill:#1F618D;}
</style>
<g>
	<g>
		<path class="st0" d="M324.6,278.8c-6.2-6.4-13.6-9.9-21.5-9.9c-7.8,0-15.4,3.4-21.8,9.8l-20.1,20.1c-1.7-0.9-3.3-1.7-4.9-2.5
			c-2.3-1.1-4.5-2.2-6.3-3.4c-18.9-12-36-27.6-52.4-47.8c-8-10.1-13.3-18.5-17.2-27.1c5.2-4.8,10.1-9.8,14.8-14.5
			c1.8-1.8,3.6-3.6,5.4-5.4c13.4-13.4,13.4-30.7,0-44.1L183,136.5c-2-2-4-4-5.9-6.1c-3.8-4-7.8-8-12-11.9
			c-6.2-6.1-13.6-9.4-21.3-9.4s-15.3,3.3-21.7,9.4c-0.1,0.1-0.1,0.1-0.1,0.1l-21.7,21.9c-8.2,8.2-12.8,18.1-13.8,29.6
			c-1.5,18.6,4,35.9,8.2,47.3c10.3,27.8,25.7,53.7,48.8,81.3c27.9,33.3,61.5,59.7,99.9,78.2c14.7,6.9,34.2,15.2,56.1,16.6
			c1.3,0.1,2.7,0.1,4,0.1c14.7,0,27.1-5.3,36.8-15.8c0.1-0.1,0.2-0.2,0.3-0.3c3.3-4,7.1-7.6,11.2-11.5c2.7-2.6,5.5-5.4,8.3-8.2
			c6.3-6.6,9.6-14.2,9.6-22.1c0-7.9-3.4-15.5-9.8-21.9L324.6,278.8z M347.4,345.9C347.3,345.9,347.3,346,347.4,345.9
			c-2.5,2.7-5,5.1-7.8,7.8c-4.1,4-8.3,8.1-12.3,12.7c-6.4,6.9-14,10.1-24,10.1c-1,0-2,0-2.9-0.1c-18.9-1.2-36.5-8.6-49.7-14.9
			c-36.1-17.5-67.7-42.3-94.1-73.7c-21.7-26.2-36.3-50.4-45.9-76.4c-5.9-15.9-8.1-28.2-7.1-39.9c0.6-7.5,3.5-13.6,8.8-18.9
			l21.7-21.7c3.1-2.9,6.4-4.5,9.7-4.5c4,0,7.3,2.4,9.3,4.5c0.1,0.1,0.1,0.1,0.2,0.2c3.9,3.6,7.6,7.4,11.5,11.4c2,2,4,4.1,6.1,6.2
			l17.4,17.4c6.8,6.8,6.8,13,0,19.8c-1.8,1.8-3.6,3.7-5.5,5.5c-5.4,5.5-10.5,10.6-16,15.6c-0.1,0.1-0.3,0.2-0.3,0.3
			c-5.5,5.5-4.5,10.8-3.3,14.5c0.1,0.2,0.1,0.4,0.2,0.6c4.5,11,10.9,21.3,20.6,33.6l0.1,0.1c17.6,21.7,36.1,38.6,56.6,51.5
			c2.6,1.7,5.3,3,7.8,4.3c2.3,1.1,4.5,2.2,6.3,3.4c0.3,0.1,0.5,0.3,0.8,0.4c2.2,1.1,4.2,1.6,6.3,1.6c5.3,0,8.6-3.3,9.7-4.4
			l21.8-21.8c2.2-2.2,5.6-4.8,9.6-4.8c4,0,7.2,2.5,9.2,4.7c0.1,0.1,0.1,0.1,0.1,0.1l35.1,35.1C353.9,332.5,353.9,339.2,347.4,345.9z
			"/>
		<path class="st0" d="M249.1,163.6c16.7,2.8,31.9,10.7,44,22.8c12.1,12.1,19.9,27.3,22.8,44c0.7,4.2,4.3,7.1,8.5,7.1
			c0.5,0,1-0.1,1.5-0.1c4.7-0.8,7.8-5.2,7.1-9.9c-3.4-20.2-13-38.6-27.6-53.2c-14.6-14.6-33-24.2-53.2-27.6c-4.7-0.8-9.1,2.4-9.9,7
			C241.3,158.3,244.4,162.8,249.1,163.6z"/>
		<path class="st0" d="M387.5,225c-5.7-33.3-21.3-63.5-45.4-87.6s-54.4-39.8-87.6-45.4c-4.7-0.8-9,2.4-9.9,7
			c-0.8,4.7,2.4,9.1,7.1,9.9c29.7,5,56.8,19.1,78.3,40.6c21.5,21.5,35.6,48.6,40.6,78.3c0.7,4.2,4.3,7.1,8.5,7.1
			c0.5,0,1-0.1,1.5-0.1C385.2,234.1,388.4,229.6,387.5,225z"/>
	</g>
</g>
</svg>
