<?xml version="1.0" encoding="utf-8"?>
<!-- Generator: Adobe Illustrator 24.2.3, SVG Export Plug-In . SVG Version: 6.00 Build 0)  -->
<svg version="1.1" id="Layer_1" xmlns="http://www.w3.org/2000/svg" xmlns:xlink="http://www.w3.org/1999/xlink" x="0px" y="0px"
	 viewBox="0 0 512 512" style="enable-background:new 0 0 512 512;" xml:space="preserve">
<style type="text/css">
	.st0{fill:#1F618D;}
</style>
<path class="st0" d="M384,0H128C79.5,0,40,39.5,40,88v256c0,48.5,39.5,88,88,88h70.9l43.3,72.2c6.2,10.3,21.2,10.4,27.4,0l43.3-72.2
	H384c48.5,0,88-39.5,88-88V88C472,39.5,432.5,0,384,0z M390.9,303.7L357,337.7c-9.5,9.5-22.6,14.3-38.4,14.3
	c-99.6,0-250-178.5-187.9-240.6l33.9-33.9c6.2-6.3,16.4-6.3,22.6,0l62.2,62.2c6.3,6.3,6.3,16.4,0,22.6l-29.9,29.9
	c7.7,18.3,38.2,48.8,56.6,56.6l29.9-29.9c6.3-6.3,16.4-6.2,22.6,0l62.2,62.2C397.2,287.4,397.2,297.5,390.9,303.7z"/>
<path class="st0" d="M294.8,275.5c-19,19-54.6-9.3-73.5-28.3c-18.9-18.9-47.3-54.6-28.3-73.5l22.6-22.6L176,111.4L153.3,134
	c-7,7-6.5,24.2,1.4,44.8c20.4,53.1,81.4,114.3,134.8,134.8c20.6,7.9,37.7,8.5,44.8,1.4l22.6-22.6l-39.6-39.6L294.8,275.5z"/>
</svg>
