<?xml version="1.0" encoding="utf-8"?>
<!-- Generator: Adobe Illustrator 24.2.3, SVG Export Plug-In . SVG Version: 6.00 Build 0)  -->
<svg version="1.1" id="Layer_1" xmlns="http://www.w3.org/2000/svg" xmlns:xlink="http://www.w3.org/1999/xlink" x="0px" y="0px"
	 viewBox="0 0 512 512" style="enable-background:new 0 0 512 512;" xml:space="preserve">
<style type="text/css">
	.st0{fill:#1F618D;}
</style>
<path class="st0" d="M256,323c5.5,0,10-4.5,10-10s-4.5-10-10-10s-10,4.5-10,10S250.5,323,256,323z"/>
<path class="st0" d="M310.7,247.2c23.2-14.1,42.4-33.9,55.6-57.4c12.9-23.1,19.8-49.2,19.8-75.5V58.3c11.6-4.1,20-15.2,20-28.3V10
	c0-5.5-4.5-10-10-10H116c-5.5,0-10,4.5-10,10v20c0,13,8.4,24.2,20,28.3v56.1c0,26.3,6.8,52.4,19.8,75.5
	c13.1,23.4,32.4,43.3,55.6,57.4c3,1.8,4.7,5.1,4.7,8.8c0,3.7-1.8,7-4.7,8.8c-23.2,14.1-42.4,33.9-55.6,57.4
	c-12.9,23.1-19.8,49.2-19.8,75.5v56.1c-11.6,4.1-20,15.2-20,28.3v20c0,5.5,4.5,10,10,10h280c5.5,0,10-4.5,10-10v-20
	c0-13-8.4-24.2-20-28.3v-56.1c0-26.3-6.8-52.4-19.8-75.5c-13.1-23.4-32.4-43.3-55.6-57.4c-3-1.8-4.7-5.1-4.7-8.8
	C305.9,252.3,307.7,249,310.7,247.2z M126,20h260v10c0,5.5-4.5,10-10,10H136c-5.5,0-10-4.5-10-10V20z M386,492H126v-10
	c0-5.5,4.5-10,10-10h240c5.5,0,10,4.5,10,10V492z M300.3,281.9c41.1,25,65.7,68.3,65.7,115.8V452H146v-54.3
	c0-47.5,24.6-90.8,65.7-115.8c9-5.5,14.4-15.1,14.4-25.9s-5.4-20.4-14.4-25.9c-41.1-25-65.7-68.3-65.7-115.8V60h220v54.3
	c0,47.5-24.6,90.8-65.7,115.8c-9,5.5-14.4,15.1-14.4,25.9S291.3,276.4,300.3,281.9z"/>
<path class="st0" d="M264,346.5c-1.9-2.5-4.8-4-8-4c0,0,0,0,0,0c-3.1,0-6.1,1.5-8,4c-3.8,5-8.5,9.3-14,12.7
	c-11.5,6.9-21.7,11.2-30.7,15c-20,8.4-37.3,15.7-37.3,43.5v4.4c0,5.5,4.5,10,10,10h160c5.5,0,10-4.5,10-10v-4.4
	c0-27.7-17.3-35-37.4-43.5c-9.1-3.9-19.4-8.2-31-15.2C272.3,355.6,267.7,351.4,264,346.5z M325.6,412H186.4
	c1.5-9.2,7.8-12.3,24.7-19.4c9.2-3.9,20.6-8.7,33.3-16.3c0,0,0.1,0,0.1-0.1c4.1-2.6,8-5.5,11.5-8.8c3.4,3.2,7.1,6,11.1,8.5
	c0,0,0.1,0,0.1,0.1c12.8,7.7,24.4,12.6,33.6,16.5C317.8,399.7,324.1,402.8,325.6,412z"/>
<path class="st0" d="M346,114.4V96c0-3.6-2-7-5.2-8.7c-3.2-1.8-7.1-1.7-10.1,0.3c-22.4,14-48.3,21.4-74.7,21.4
	c-26.4,0-52.3-7.4-74.7-21.4c-3.1-1.9-7-2-10.1-0.3S166,92.4,166,96v18.4c0,17.3,6.7,35.9,19.3,53.8c12.2,17.4,29.2,32.9,49.1,44.9
	c4,2.5,8,6.1,11.6,10.4V273c0,5.5,4.5,10,10,10c5.5,0,10-4.5,10-10v-49.5c3.6-4.4,7.7-8,12-10.6C318.7,188.3,346,148.8,346,114.4z
	 M267.6,195.8C267.6,195.8,267.5,195.8,267.6,195.8c-4.1,2.5-7.9,5.6-11.6,9.1c-3.5-3.4-7.2-6.4-11.1-8.8c0,0-0.1,0-0.1-0.1
	c-35.2-21.2-58.8-54-58.8-81.6v-1.5c21.8,10.5,45.7,16,70,16s48.2-5.5,70-16v1.5C326,141.6,302,175.1,267.6,195.8z"/>
</svg>
