<?xml version="1.0" encoding="utf-8"?>
<!-- Generator: Adobe Illustrator 24.2.3, SVG Export Plug-In . SVG Version: 6.00 Build 0)  -->
<svg version="1.1" id="Capa_1" xmlns="http://www.w3.org/2000/svg" xmlns:xlink="http://www.w3.org/1999/xlink" x="0px" y="0px"
	 viewBox="0 0 384 384" style="enable-background:new 0 0 384 384;" xml:space="preserve">
<style type="text/css">
	.st0{fill:#1F618D;}
</style>
<g>
	<g>
		<g>
			<path class="st0" d="M234.7,170.7h96c5.9,0,10.7-4.8,10.7-10.7v-21.3c0-5.9-4.8-10.7-10.7-10.7h-44.5l94.7-94.7
				c4.2-4.2,4.2-10.9,0-15.1L365.8,3.1c-4.2-4.2-10.9-4.2-15.1,0L256,97.8V53.3c0-5.9-4.8-10.7-10.7-10.7H224
				c-5.9,0-10.7,4.8-10.7,10.7v96C213.3,161.1,222.9,170.7,234.7,170.7z"/>
			<path class="st0" d="M353.2,252.1c-23.5,0-46.6-3.7-68.5-10.9c-10.7-3.6-23.9-0.3-30.4,6.4l-43.2,32.6
				c-50.1-26.7-80.9-57.6-107.3-107.3l31.7-42.1c8.2-8.2,11.1-20.2,7.6-31.4c-7.3-22-10.9-45.1-10.9-68.6c0-17-13.8-30.8-30.8-30.8
				H30.8C13.8,0,0,13.8,0,30.8C0,225.6,158.4,384,353.2,384c17,0,30.8-13.8,30.8-30.8v-70.3C384,265.9,370.2,252.1,353.2,252.1z"/>
		</g>
	</g>
</g>
</svg>
