<?xml version="1.0" encoding="utf-8"?>
<!-- Generator: Adobe Illustrator 24.2.3, SVG Export Plug-In . SVG Version: 6.00 Build 0)  -->
<svg version="1.1" id="Capa_1" xmlns="http://www.w3.org/2000/svg" xmlns:xlink="http://www.w3.org/1999/xlink" x="0px" y="0px"
	 viewBox="0 0 25.6 25.6" style="enable-background:new 0 0 25.6 25.6;" xml:space="preserve">
<style type="text/css">
	.st0{fill:#1F618D;}
</style>
<g>
	<g>
		<path class="st0" d="M15.3,24.1c0.3,0.1,0.6,0.1,0.8-0.2l9.3-7.3c0.3-0.3,0.3-0.8,0-1.1l-9.3-7.3c-0.1-0.1-0.3-0.2-0.5-0.2
			c-0.1,0-0.2,0-0.3,0.1c-0.3,0.1-0.5,0.4-0.5,0.7l0,4.4c-10,0-14.3-2.8-13.6-11.8C-3.1,15.7,5,19,14.8,19l0,4.4
			C14.8,23.7,15,24,15.3,24.1z"/>
	</g>
</g>
</svg>
